<svg xmlns="http://www.w3.org/2000/svg" viewBox="0 0 1115.39 247.06"><defs><style>.cls-1{fill:#93a7ff;}</style></defs><g id="Layer_2" data-name="Layer 2"><g id="Layer_2-2" data-name="Layer 2"><path class="cls-1" d="M283.73,0s-.87,28.83-10.23,38.4c-7.43,7.61-26.21,8.68-26.21,8.68s20.49,2.79,26.21,8.34c9.06,8.79,10.23,38.75,10.23,38.75s.7-30.06,10.13-38.75c7.34-6.77,26.31-8.34,26.31-8.34s-19.36-2.34-26.31-8.68C284.86,30.21,283.73,0,283.73,0Z"/><path d="M9.45,120.5q9.44-18.33,25.66-28.2a68.27,68.27,0,0,1,36.23-9.87q17.49,0,30.6,7a62.2,62.2,0,0,1,21,17.76V85h39.76V241.19H123V218.35a58.81,58.81,0,0,1-21,18.19q-13.41,7.19-30.88,7.19a66.39,66.39,0,0,1-36-10.15Q18.9,223.43,9.45,205T0,162.52Q0,138.82,9.45,120.5Zm107.86,17.9a39.82,39.82,0,0,0-15.23-15.79,40.64,40.64,0,0,0-20.58-5.5,39.63,39.63,0,0,0-35.39,21q-5.79,10.31-5.78,24.4t5.78,24.67A41.5,41.5,0,0,0,61.34,203.4,38.54,38.54,0,0,0,81.5,209a40.7,40.7,0,0,0,20.59-5.5,39.73,39.73,0,0,0,15.22-15.79Q123,177.46,123,163.08T117.31,138.4Z"/><path d="M195,241.19V42.35l38.91-6.53V241.19Z"/><path d="M264.28,241.19V93.2h38.92v148Z"/><path class="cls-1" d="M381.59,241.18l-63.35-148h42.32l40.34,98.57,40.62-98.57H482.7l-63.05,148Z"/><path class="cls-1" d="M566.5,244a79.69,79.69,0,0,1-68.74-37.92q-10.51-17.19-10.51-38.78a76.18,76.18,0,0,1,10.08-38.77,75.29,75.29,0,0,1,27.41-27.69,74,74,0,0,1,38.34-10.23Q584.4,90.63,601,101a73.15,73.15,0,0,1,26.13,28.27q9.51,17.9,9.52,40.9v10.23H527a43.16,43.16,0,0,0,8.52,15.91A40.19,40.19,0,0,0,550,207.23a44.38,44.38,0,0,0,18.46,3.83,54.63,54.63,0,0,0,18.18-3,39.6,39.6,0,0,0,14.48-8.66l25.57,23.29A89,89,0,0,1,566.5,244Zm-40-91.47H598.6a41.57,41.57,0,0,0-7.53-15.48,37.19,37.19,0,0,0-12.64-10.37A35.13,35.13,0,0,0,562.52,123,37.67,37.67,0,0,0,546,126.56a33.1,33.1,0,0,0-12.35,10.23A43.67,43.67,0,0,0,526.45,152.55Z"/><path class="cls-1" d="M660.24,241.17v-148h39.2v16.47a46,46,0,0,1,16.9-14.77,49.19,49.19,0,0,1,22.58-5.11q11.08.28,16.19,3.12v34.37a54,54,0,0,0-9.51-3.12A46.88,46.88,0,0,0,735.22,123a38.54,38.54,0,0,0-20.73,5.83,42.64,42.64,0,0,0-15.06,16.33v96Z"/><path class="cls-1" d="M833.22,244a129.09,129.09,0,0,1-37.35-5.26,95.1,95.1,0,0,1-30.26-14.91l19.32-26.13a115.54,115.54,0,0,0,24.57,12.78,68.59,68.59,0,0,0,23.43,4.26q13.07,0,20.88-4.41t7.81-11.5a10.92,10.92,0,0,0-4.4-9.09q-4.41-3.41-14.06-4.83l-28.41-4.26q-21.87-3.41-33.37-14.34t-11.51-28.83q0-14.49,7.53-25T798.84,96.3q13.92-5.68,32.39-5.68a113.18,113.18,0,0,1,31.95,4.54,101.71,101.71,0,0,1,29.12,13.92l-18.75,25.28a98.53,98.53,0,0,0-23.43-11.08,76.55,76.55,0,0,0-22.3-3.4q-10.52,0-16.9,4t-6.39,10.51a11.09,11.09,0,0,0,4.54,9.38q4.54,3.4,15.34,5.11l28.41,4Q875,156,886.62,167t11.65,28.12a39.68,39.68,0,0,1-8.53,25.13q-8.52,11-23.14,17.33T833.22,244Z"/><path class="cls-1" d="M1069.79,160.08a73.55,73.55,0,0,0-5.44-22.46,72.36,72.36,0,0,0-4.76-9.37,77.41,77.41,0,0,0-6.6-9.36q-5.67,2.16-11.68,4.72a203,203,0,0,0-15.89-16q5.11-2.28,10-4.34c-1.39-.9-2.81-1.77-4.28-2.59q-17.9-10.08-40-10.08T951.09,100.7a76.29,76.29,0,0,0-28.41,27.56,74.23,74.23,0,0,0-10.51,39.05q0,3.65.31,7.17c1.25-1,2.53-1.93,3.82-2.9,4.38,5.43,7.92,11.55,11.81,17.39q-5.31,4-10.12,7.91a73.88,73.88,0,0,0,4.69,9.21,78.76,78.76,0,0,0,6.75,9.55A76.73,76.73,0,0,0,947,231.25q2,1.32,4.14,2.53Q969,244,991.15,244q22.43,0,40.33-10.22a76.34,76.34,0,0,0,28.26-27.7,74.37,74.37,0,0,0,10.36-38.77Q1070.1,163.64,1069.79,160.08Zm-57.63,44.3a39,39,0,0,1-21,5.82H991a38.25,38.25,0,0,1-20.7-5.82,42.62,42.62,0,0,1-14.63-15.48A44,44,0,0,1,950.24,167a43.46,43.46,0,0,1,5.39-21.59,41.07,41.07,0,0,1,14.78-15.34,39.71,39.71,0,0,1,21-5.68,38.53,38.53,0,0,1,20.6,5.68,42.63,42.63,0,0,1,14.77,15.34,41.35,41.35,0,0,1,5.2,15.84,46.83,46.83,0,0,1,.34,5.74,44.06,44.06,0,0,1-5.4,21.88c-.17.31-.35.62-.53.92A42,42,0,0,1,1012.16,204.38Z"/><path class="cls-1" d="M928.11,189q-5.31,4-10.12,7.91a73.32,73.32,0,0,1-5.51-22.4c1.25-1,2.53-1.93,3.82-2.9C920.68,177,924.22,183.13,928.11,189Z"/><path class="cls-1" d="M1053,118.89q-5.67,2.16-11.68,4.72a203,203,0,0,0-15.89-16q5.11-2.28,10-4.34A75.33,75.33,0,0,1,1053,118.89Z"/><path d="M1087.45,145.55c-5.29,4.72-11.22,9.59-17.66,14.53a520.41,520.41,0,0,1-43.39,29.74q-8.12,5-16.6,9.92c-6.31,3.64-12.61,7.14-18.84,10.46-15.28,8.15-30.19,15.28-44,21.05-8.05,3.36-15.72,6.26-22.9,8.64-14.42,4.77-25.92,7.17-34.76,7.17-10,0-16.66-3.09-20.24-9.29-.19-.34-.38-.67-.55-1h0c-5.68-11.52,2.69-26.71,26.22-47.66.9-.8,1.81-1.6,2.75-2.4,4.59-4,9.63-8.07,15-12.2a73.32,73.32,0,0,0,5.51,22.4q-2.13,1.73-4.14,3.42c-16,13.49-22.19,21.67-24.56,25.79h0c4.77,0,14.94-1.27,34.59-8.38,1.81-.66,3.65-1.34,5.53-2.07,10.91-4.18,22.81-9.45,35.16-15.52,11.33-5.58,23-11.84,34.71-18.57,11.4-6.58,22.41-13.42,32.69-20.27,12-8,23-16,32.36-23.66,1.36-1.11,2.68-2.2,4-3.29,16-13.49,22.19-21.67,24.58-25.79h0c-4.77,0-14.94,1.27-34.59,8.38-1.73.63-3.49,1.28-5.28,2a75.33,75.33,0,0,0-17.52-15.6c8-3.32,15.56-6.19,22.66-8.55,30.79-10.2,48.28-9.53,55,2.12S1111.69,124,1087.45,145.55Z"/><path class="cls-1" d="M832.22,243.88a129.09,129.09,0,0,1-37.35-5.26,95.1,95.1,0,0,1-30.26-14.91l19.32-26.13a115.54,115.54,0,0,0,24.57,12.78,68.59,68.59,0,0,0,23.43,4.26q13.07,0,20.88-4.4t7.81-11.51a11,11,0,0,0-4.4-9.09q-4.41-3.41-14.06-4.83l-28.41-4.26q-21.87-3.41-33.37-14.34t-11.51-28.83q0-14.49,7.53-25t21.44-16.19q13.92-5.67,32.39-5.68A113.18,113.18,0,0,1,862.18,95,102,102,0,0,1,891.3,109l-18.75,25.28a98.08,98.08,0,0,0-23.43-11.07,76.23,76.23,0,0,0-22.3-3.41q-10.52,0-16.9,4t-6.39,10.51a11.07,11.07,0,0,0,4.54,9.37q4.54,3.4,15.34,5.11l28.41,4q22.15,3.12,33.8,14.2T897.27,195a39.72,39.72,0,0,1-8.53,25.14q-8.52,10.93-23.14,17.32T832.22,243.88Z"/><path d="M1087.45,145.55c-5.29,4.72-11.22,9.59-17.66,14.53a520.41,520.41,0,0,1-43.39,29.74q-8.12,5-16.6,9.92c-6.31,3.64-12.61,7.14-18.84,10.46-15.28,8.15-30.19,15.28-44,21.05-8.05,3.36-15.72,6.26-22.9,8.64-14.42,4.77-25.92,7.17-34.76,7.17-10,0-16.66-3.09-20.24-9.29-.19-.34-.38-.67-.55-1h0c-5.68-11.52,2.69-26.71,26.22-47.66.9-.8,1.81-1.6,2.75-2.4,4.59-4,9.63-8.07,15-12.2a73.32,73.32,0,0,0,5.51,22.4q-2.13,1.73-4.14,3.42c-16,13.49-22.19,21.67-24.56,25.79h0c4.77,0,14.94-1.27,34.59-8.38,1.81-.66,3.65-1.34,5.53-2.07,10.91-4.18,22.81-9.45,35.16-15.52,11.33-5.58,23-11.84,34.71-18.57,11.4-6.58,22.41-13.42,32.69-20.27,12-8,23-16,32.36-23.66,1.36-1.11,2.68-2.2,4-3.29,16-13.49,22.19-21.67,24.58-25.79h0c-4.77,0-14.94,1.27-34.59,8.38-1.73.63-3.49,1.28-5.28,2a75.33,75.33,0,0,0-17.52-15.6c8-3.32,15.56-6.19,22.66-8.55,30.79-10.2,48.28-9.53,55,2.12S1111.69,124,1087.45,145.55Z"/></g></g></svg>