<svg width="214" height="214" viewBox="0 0 214 214" fill="none" xmlns="http://www.w3.org/2000/svg">
<path d="M149.405 158.707L109.774 65.5232H136.249L161.485 127.585L186.896 65.5232H212.658L173.215 158.707H149.405Z" fill="#93A7FF"/>
<path d="M120.301 124.153C120.301 124.153 119.835 139.72 114.813 144.887C110.827 148.996 100.752 149.574 100.752 149.574C100.752 149.574 111.744 151.08 114.813 154.077C119.674 158.823 120.301 175 120.301 175C120.301 175 120.677 158.769 125.736 154.077C129.674 150.421 139.851 149.574 139.851 149.574C139.851 149.574 129.465 148.31 125.736 144.887C120.908 140.465 120.301 124.153 120.301 124.153Z" fill="#93A7FF"/>
<path d="M7.08913 86.7176C10.8119 79.4265 15.8716 73.8181 22.2682 69.8921C28.7259 65.9472 36.1507 63.9071 43.6999 64.0033C50.5973 64.0033 56.6311 65.3954 61.8012 68.1798C66.6741 70.7327 70.9187 74.3534 74.2237 78.7762V65.5366H97.7435V158.727H74.2592V145.099C71.0371 149.666 66.7775 153.387 61.8367 155.952C56.5483 158.812 50.4593 160.242 43.5698 160.242C36.0425 160.324 28.6505 158.222 22.2741 154.186C15.8775 150.149 10.8159 144.465 7.08913 137.134C3.36239 129.803 1.49902 121.355 1.49902 111.789C1.49902 102.362 3.36239 94.0046 7.08913 86.7176ZM70.8933 97.3975C68.824 93.4683 65.7024 90.204 61.884 87.9765C58.1875 85.8103 53.9851 84.6775 49.71 84.6949C45.4176 84.65 41.1954 85.7947 37.5038 88.0042C33.8122 90.2136 30.7929 93.403 28.7752 97.2245C26.4918 101.325 25.3521 106.178 25.3561 111.783C25.36 117.387 26.4997 122.294 28.7752 126.502C30.849 130.495 33.964 133.841 37.7844 136.179C41.3781 138.381 45.5054 139.537 49.71 139.521C53.9869 139.537 58.191 138.405 61.8899 136.239C65.708 134.013 68.8279 130.748 70.8933 126.818C73.1372 122.741 74.2592 117.843 74.2592 112.123C74.2592 106.403 73.1372 101.494 70.8933 97.3975Z" fill="#93A7FF"/>
</svg>
